<svg id="rect" xmlns="http://www.w3.org/2000/svg" viewBox="0 0 80 100"><defs><style>.cls-1,.cls-2{fill:none;stroke-miterlimit:10;}.cls-1{stroke:#0f0801;}.cls-2{stroke:#0a0704;}</style></defs><title>5</title><rect class="cls-1" x="0.5" y="0.5" width="79" height="99"/><path class="cls-2" d="M57,18.5H29.83c-2.41,13.07-4.28,27-5.5,33.34,1.33-1.84,3.85-7.93,11.5-10.17a16.28,16.28,0,0,1,11,1c5,2.31,7.17,6.46,8.33,8.67A24.44,24.44,0,0,1,57.67,65,23.1,23.1,0,0,1,53.5,77.67a17.25,17.25,0,0,1-8.83,6.83A17,17,0,0,1,31.5,82.83a17.93,17.93,0,0,1-7-7.33,19.13,19.13,0,0,1-2.17-10.33"/></svg>