<svg id="rect" xmlns="http://www.w3.org/2000/svg" viewBox="0 0 80 100"><defs><style>.cls-1,.cls-2{fill:none;stroke-miterlimit:10;}.cls-1{stroke:#0f0801;}.cls-2{stroke:#000;}</style></defs><title>{</title><rect class="cls-1" x="0.5" y="0.5" width="79" height="99"/><path class="cls-2" d="M48.75,5.4a12.88,12.88,0,0,0-3.92.1,6.9,6.9,0,0,0-3.67,2A8.22,8.22,0,0,0,39.33,13c-0.26,11.73.17,17.67,0,24.33C38.5,43.75,37,48,32.5,49.94c4.08,2.47,5.7,4.62,6.17,10.06,0.67,7.75.75,16.25,0.67,24.17,0,1.94.19,6,1.33,8a7.84,7.84,0,0,0,4.17,2.33,9.59,9.59,0,0,0,3,.08"/></svg>