<svg id="rect" xmlns="http://www.w3.org/2000/svg" viewBox="0 0 80 100"><defs><style>.cls-1,.cls-2{fill:none;stroke-miterlimit:10;}.cls-1{stroke:#0f0801;}.cls-2{stroke:#000;}</style></defs><title>}</title><rect class="cls-1" x="0.5" y="0.5" width="79" height="99"/><path class="cls-2" d="M35.42,6.27a23.26,23.26,0,0,1,5-.06,4.55,4.55,0,0,1,2.9,1.86A9,9,0,0,1,44.88,12c0.76,4.29-.29,20.08.25,24.88,0.49,4.3.62,6.51,1.75,8.63,1.63,3.17,3.29,4.17,5.13,4.75-1.43.73-2.67,0.92-4.37,3.13a21,21,0,0,0-2.71,9c0,8-.07,16,0,24,0,2.49-.47,4.62-2.21,6.29-2.19,2.11-5.09,1.87-6.92,1.71"/></svg>