<svg id="rect" xmlns="http://www.w3.org/2000/svg" viewBox="0 0 80 100"><defs><style>.cls-1,.cls-2{fill:none;stroke-miterlimit:10;}.cls-1{stroke:#000;}.cls-2{stroke:#1c0e03;}</style></defs><title>3</title><rect class="cls-1" x="0.5" y="0.5" width="79" height="99"/><path class="cls-2" d="M23.17,37.67C23.42,30,26.17,22.5,31.5,19a16.69,16.69,0,0,1,19.67,1.5c5,4.42,5.31,10.74,5.33,12.33s0.09,7.53-4.67,12c-5,4.7-13.13,2.94-13.17,3.83s9.79-.12,15.33,5.67c4.3,4.49,4.07,11.09,4,13-0.08,2.19-.31,8.65-5.5,13.33s-11.36,4.25-13,4.17a18.71,18.71,0,0,1-12.67-5.67C21,72.94,22,64.91,22.17,63.83"/></svg>