<svg id="rect" xmlns="http://www.w3.org/2000/svg" viewBox="0 0 80 100"><defs><style>.cls-1,.cls-2{fill:none;stroke-miterlimit:10;}.cls-1{stroke:#0f0801;}.cls-2{stroke:#140a02;}</style></defs><title>6</title><rect class="cls-1" x="0.5" y="0.5" width="79" height="99"/><path class="cls-2" d="M57.17,33c-0.06-6.31-3.3-12-8.5-14.67a15.54,15.54,0,0,0-11.17-1C32.26,19,29.63,23.13,27.83,26A23,23,0,0,0,24,36.17a110.62,110.62,0,0,0-.67,28.31c0.79,6.59,1.66,8.4,3.17,11.19,1.29,2.38,3,5.38,6.5,7.5a16.5,16.5,0,0,0,12.33,1.67c7-2,10-8.3,11.17-10.83,3.87-8.18,1.53-16,.83-18.17-1-3.26-3.11-9.8-9.5-12.83a15.42,15.42,0,0,0-11.17-.83,15.08,15.08,0,0,0-9,7.83c-3,4.83-4.5,12.57-4.24,15.22"/></svg>