<svg id="rect" xmlns="http://www.w3.org/2000/svg" viewBox="0 0 80 100"><defs><style>.cls-1{fill:none;stroke:#0f0801;stroke-miterlimit:10;}</style></defs><title>9</title><rect class="cls-1" x="0.5" y="0.5" width="79" height="99"/><path class="cls-1" d="M58.17,38.17c0,2,0,10.17-6.17,16.5-1.56,1.62-5.41,5.59-11.17,5.83-9.2.39-14.81-9.09-15.33-10a22.2,22.2,0,0,1-2.67-11.67c0-3.26,0-11.15,6-16.83,1-1,5.46-5.18,12-5C48.53,17.21,53.1,23.3,54,24.5c2.44,3.24,3.06,6.27,4,11.17,1.53,7.93,1,14.15.17,22-0.73,7.3-1.14,11-3,15.17s-4.11,9.09-9.67,11.33C38.72,86.9,32.35,83.31,31.83,83c-7.59-4.45-8-13.26-8-13.83"/></svg>