<svg id="rect" xmlns="http://www.w3.org/2000/svg" viewBox="0 0 80 100"><defs><style>.cls-1,.cls-2{fill:none;stroke-miterlimit:10;}.cls-1{stroke:#0f0801;}.cls-2{stroke:#000;}</style></defs><title>;</title><rect class="cls-1" x="0.5" y="0.5" width="79" height="99"/><path class="cls-2" d="M41.33,26.83c0.94,0,1.74,2.39,1.83,4.25,0.11,2.25-.76,5-1.75,5s-2.13-2.54-2.08-4.83C39.37,29.18,40.39,26.81,41.33,26.83Z"/><path class="cls-2" d="M38.42,88.42a8.86,8.86,0,0,0,2.75-3.33c1.1-2.4.18-3.59,0.83-8,0.41-2.8.91-3.23,0.75-5.17-0.18-2.12-1-4.53-1.75-4.5s-1.38,2.74-1.33,4.92S41.5,76.08,42,77.08"/></svg>